<?xml version="1.0" encoding="UTF-8"?>
<svg id="Layer_2" data-name="Layer 2" xmlns="http://www.w3.org/2000/svg" viewBox="0 0 1463.75 1463.89">
  <g id="Layer_1-2" data-name="Layer 1">
    <path d="M1463.61,3.77c0,484.47-.01,968.94.14,1453.4,0,5.48-1.23,6.72-6.72,6.72-484.45-.15-968.9-.14-1453.35-.14-2.63-1.4-3.88-3.54-3.66-6.57.12-1.7.02-3.41.02-5.12,0-479.77,0-959.55,0-1439.32,0-2.19-.07-4.39.03-6.58C.27,2.41,2.28.38,6.04.17c1.95-.11,3.9-.04,5.85-.04,480.24,0,960.49,0,1440.73.03,3.98,0,8.56-1.33,10.99,3.61Z" style="fill: none; stroke-width: 0px;"/>
    <g>
      <path d="M731.64,1085.44c-72.57,0-145.15.91-217.7-.3-54.94-.91-96.57-26.51-121.32-75.99-19.59-39.17-19.14-79.74-.1-119.1,21.05-43.51,42.63-86.82,65.69-129.29,14.36-26.45,36.51-44.67,68-48.22,24.89-2.81,46.06,6.2,64.91,21.5,11.69,9.49,20.87,21.4,30.14,33.2,19.95,25.4,48.97,34.64,74.98,23.45,15.89-6.83,27.14-19.22,35.5-34.06,23.05-40.91,45.81-81.99,68.79-122.94,10.63-18.95,24.02-35.96,42.45-47.49,38.63-24.17,79.11-13.18,107.35,27.99,13.59,19.82,21.69,42.33,31.06,64.2,31.48,73.47,63.41,146.76,94.06,220.58,34,81.9-20.78,173.95-108.88,184.93-8.84,1.1-17.6,1.54-26.44,1.54-69.5.02-139,0-208.5,0Z" style="fill: #ababab; stroke-width: 0px;"/>
      <path d="M676.27,494.14c1.7,59.25-47.74,114.73-114.81,114.41-68.38-.33-115.75-56.52-114.81-117.05.97-62.78,52.58-113.9,116.36-113.36,62.58.53,115.41,52.68,113.25,116Z" style="fill: #ababab; stroke-width: 0px;"/>
    </g>
  </g>
</svg>